# xmcd
#
# Track frame offsets: 
#        150
#        15950
#        28062
#        42640
#        60007
#        79142
#        92247
#        108387
#        123570
#        140265
#
# Disc length: 2109 seconds
#
# Revision: 4
# Processed by: cddbd v1.5.2PL0 Copyright (c) Steve Scherf et al.
# Submitted via: ExactAudioCopy v1.0b3
#
DISCID=79083b0a
DTITLE=The Judds - Greatest Hits
DYEAR=1988
DGENRE=Country
TTITLE0=Why Not Me
TTITLE1=Rockin' With The Rhythm Of The Rain
TTITLE2=Mama He's Crazy
TTITLE3=Give A Little Love
TTITLE4=Grandpa (Tell Me 'bout The Good Old Days)
TTITLE5=Girls Night Out
TTITLE6=Change Of Heart
TTITLE7=Have Mercy
TTITLE8=Cry Myself To Sleep
TTITLE9=Love Is Alive
EXTD=
EXTT0=
EXTT1=
EXTT2=
EXTT3=
EXTT4=
EXTT5=
EXTT6=
EXTT7=
EXTT8=
EXTT9=
PLAYORDER=
